# xmcd
#
# Track frame offsets:
#	150
#	24628
#	37067
#	48473
#	61690
#	79995
#	93541
#	105775
#	118639
#	134179
#	144780
#	157533
#	170798
#	184774
#	196674
#	209104
#	227050
#
# Disc length: 3196 seconds
#
# Revision: 1
# Processed by: cddbd v1.5.1PL0 Copyright (c) Steve Scherf et al.
# Submitted via: audiograbber 1.83.01
#
DISCID=e70c7a11
DTITLE=Blues Classics - Legenden Der Bluesgeschichte
DYEAR=1900
DGENRE=Blues
TTITLE0=Muddy Waters - Mannish Boy
TTITLE1=Elmore James - The Sky Is Crying
TTITLE2=John Lee Hooker - Boom Boom
TTITLE3=J.B. Lenoir - The Mojo
TTITLE4=Willie Dixon - God Bless Our Love
TTITLE5=Little Walter - Blue Midnight
TTITLE6=John lee Hooker - I'm In The Mood
TTITLE7=Muddy Waters - Baby Please Don't Go
TTITLE8=Memphis Slim - My Baby Left Me
TTITLE9=Otis Rush - Little Red Rooster
TTITLE10=Lightnin' Hopkins - Talkin' Some Sense
TTITLE11=Elmore James Jr. - Crazy Bout Ida Mae
TTITLE12=Johnny Copeland - Working Men Blues
TTITLE13=T-Bone Walker - T-Bone Is Black
TTITLE14=Screamin' Jay Hawkins - Because Of You
TTITLE15=Muddy Waters - I'm Your Hochie Cochie Man
TTITLE16=Bo Diddley - Pretty Thing
EXTD=
EXTT0=
EXTT1=
EXTT2=
EXTT3=
EXTT4=
EXTT5=
EXTT6=
EXTT7=
EXTT8=
EXTT9=
EXTT10=
EXTT11=
EXTT12=
EXTT13=
EXTT14=
EXTT15=
EXTT16=
PLAYORDER=
